<?xml version="1.0" encoding="UTF-8"?><svg id="Layer_2" xmlns="http://www.w3.org/2000/svg" xmlns:xlink="http://www.w3.org/1999/xlink" viewBox="0 0 200 160.42"><defs><style>.cls-1{fill:#80cbc4;}.cls-2{fill:url(#linear-gradient);}</style><linearGradient id="linear-gradient" x1="45.299" y1="112.867" x2="105.553" y2="81.867" gradientTransform="translate(0 162) scale(1 -1)" gradientUnits="userSpaceOnUse"><stop offset="0" stop-color="#b39ddb"/><stop offset="1" stop-color="#80cbc4"/></linearGradient></defs><g id="Layer_1-2"><path class="cls-2" d="M25.135,46.139c2.183-5.676,14.409-1.534,26.197-3.93,9.779-1.987,16.592-2.62,22.704-6.986,11.655-8.325,16.421-22.835,30.127-29.69C115.898-.336,122.063-.386,135.164.293c6.986.363,25.866,4.264,41.043,14.845,13.672,9.532,24.399,27.214,23.766,27.214-9.605,0-19.836-8.385-32.498-9.749-18.317-1.973-30.606-1.51-46.719,7.423-9.605,5.325-28.157,25.468-31.436,48.029-1.478,10.167-2.645,24.334,4.991,37.256,5.16,8.732,14.527,13.853,12.662,15.718-2.183,2.183-29.879,22.15-42.978,19.068-4.366-1.027-20.084-9.605-33.619-17.464C16.281,134.448-2.371,122.985.248,112.506c2.826-11.303,10.676-9.127,14.845-17.465,1.31-2.62-.385-7.859,2.183-10.479,3.47-3.539,11.352.437,11.352.437,0,0-5.936-3.341-6.549-7.423-.919-6.113,7.899-6.287,9.606-12.225,1.707-5.938-9.627-11.208-6.549-19.211Z"/><path class="cls-1" d="M129.009,93.424l-23.378-.767-.767,23.379,23.379.767.766-23.379Z"/><path class="cls-1" d="M127.272,72.152l-11.689-.383-.383,11.689,11.689.383.383-11.689Z"/><path class="cls-1" d="M160.415,94.119l-6.012-.197-.197,6.012,6.012.197.197-6.011Z"/><path class="cls-1" d="M143.685,74.611l-6.012-.197-.197,6.012,6.012.197.197-6.012Z"/><path class="cls-1" d="M106.954,119.875l-6.012-.197-.197,6.012,6.012.197.197-6.012Z"/><path class="cls-1" d="M99.761,98.335l-6.012-.197-.197,6.012,6.012.197.197-6.011Z"/><path class="cls-1" d="M112.624,52.45l-6.012-.197-.197,6.012,6.012.197.197-6.012Z"/><path class="cls-1" d="M106.08,78.964l-11.689-.383-.383,11.689,11.69.383.383-11.689Z"/><path class="cls-1" d="M166.637,43.172l-11.689-.383-.384,11.689,11.69.383.383-11.689Z"/><path class="cls-1" d="M162.271,75.482l-11.689-.383-.384,11.689,11.69.383.383-11.689Z"/><path class="cls-1" d="M130.435,55.655l-11.69-.383-.383,11.689,11.689.383.384-11.689Z"/><path class="cls-1" d="M183.049,59.473l-11.69-.383-.383,11.689,11.689.383.384-11.689Z"/><path class="cls-1" d="M151.31,85.172l-11.69-.383-.383,11.689,11.689.383.384-11.689Z"/><path class="cls-1" d="M134.351,122.722l-11.69-.383-.383,11.689,11.689.384.384-11.69Z"/><path class="cls-1" d="M175.289,99.938l-11.689-.383-.384,11.689,11.69.384.383-11.69Z"/><path class="cls-1" d="M157.029,38.686l-23.378-.767-.767,23.379,23.379.767.766-23.379Z"/><path class="cls-1" d="M192.816,82.165l-23.378-.767-.767,23.379,23.379.767.766-23.379Z"/></g></svg>